<?xml version="1.0" encoding="UTF-8"?>
<!DOCTYPE svg PUBLIC "-//W3C//DTD SVG 1.1//EN" "http://www.w3.org/Graphics/SVG/1.1/DTD/svg11.dtd">
<!-- Creator: CorelDRAW X8 -->
<svg xmlns="http://www.w3.org/2000/svg" xml:space="preserve" width="8.26772in" height="11.6929in" version="1.1" style="shape-rendering:geometricPrecision; text-rendering:geometricPrecision; image-rendering:optimizeQuality; fill-rule:evenodd; clip-rule:evenodd"
viewBox="0 0 8268 11693"
 xmlns:xlink="http://www.w3.org/1999/xlink">
 <defs>
  <style type="text/css">
   <![CDATA[
    .fil1 {fill:#03A9F4}
    .fil2 {fill:#4B4948}
    .fil0 {fill:white}
   ]]>
  </style>
 </defs>
 <g id="Layer_x0020_1">
  <metadata id="CorelCorpID_0Corel-Layer"/>
  <path class="fil0" d="M3889 1140c20,5 52,33 79,18 8,-14 -11,-26 -18,-33 -6,-8 -20,-22 -24,-32 -10,-8 -19,-37 -17,-57 3,-25 8,-40 8,-69l4 10c4,12 9,19 16,30l30 30c5,6 10,9 15,13 7,6 11,9 18,14l35 27c9,4 16,11 25,17 8,6 18,12 23,21 6,2 19,13 25,18 75,55 136,85 198,-18 45,-75 38,-167 -13,-241 -6,-9 -15,-16 -21,-25 -14,-3 -48,11 -52,8 -7,-6 -6,-13 -1,-21 6,-10 12,-8 20,-12 -10,-15 -68,-32 -92,-36 -69,-10 -124,13 -172,52 -7,6 -11,9 -17,16 -20,24 -41,48 -41,90 -5,-8 -7,-16 -25,-21 -52,-14 -90,70 -49,151 5,9 13,20 19,27 5,5 8,8 13,12 3,2 3,2 6,5l8 6z"/>
  <path class="fil1" d="M4040 862c-55,11 -83,80 -23,125l121 92c33,26 56,52 96,45 34,-6 65,-44 52,-86 -8,-22 -17,-28 -32,-40l-161 -122c-14,-11 -32,-18 -53,-14z"/>
  <path class="fil1" d="M3981 1129c-1,26 -6,39 -22,49 -7,4 -15,7 -26,6 -13,0 -16,-5 -27,-8 -3,8 -14,17 -24,37 24,0 47,0 71,0 24,0 43,3 69,2 13,0 18,-2 33,-2l109 0c-21,-39 -48,-60 -86,-79 0,0 0,0 -1,-1 -25,-3 -34,-11 -66,-8 -16,-1 -18,3 -30,4z"/>
  <path class="fil1" d="M4239 838c-8,4 -14,2 -20,12 -5,8 -6,15 1,21 4,3 38,-11 52,-8 32,0 45,4 66,16 8,5 17,12 24,19 5,5 14,16 17,24 7,-2 2,0 7,-4 0,0 3,-3 3,-3 3,-2 2,-1 4,-4 -12,-27 -30,-48 -56,-62 -29,-17 -59,-19 -98,-11z"/>
  <path class="fil0" d="M4393 911c-2,3 -1,2 -4,4 0,0 -3,3 -3,3 -5,4 0,2 -7,4 -28,60 49,77 62,31 2,-9 1,-17 -3,-25 -4,-8 -10,-12 -18,-16 -14,-6 -14,-1 -27,-1z"/>
  <path class="fil2" d="M3889 1140c0,17 9,28 17,36 11,3 14,8 27,8 11,1 19,-2 26,-6 16,-10 21,-23 22,-49 -4,-13 -10,-20 -19,-27 -10,-8 -19,-9 -36,-9 4,10 18,24 24,32 7,7 26,19 18,33 -27,15 -59,-13 -79,-18z"/>
  <path class="fil2" d="M4011 1125c32,-3 41,5 66,8 4,-7 1,-2 6,-4 -5,-9 -15,-15 -23,-21 -9,-6 -16,-13 -25,-17 -4,6 -8,10 -13,16 -5,6 -8,11 -11,18z"/>
 </g>
</svg>
